<svg version="1.2" xmlns="http://www.w3.org/2000/svg" viewBox="0 0 46 49" width="46" height="49"><style>.a{fill:none;stroke:#331b3b;stroke-width:2}.b{fill:#331b3b}</style><path fill-rule="evenodd" class="a" d="m40.7 35.4c-2.9 4.9-7.9 8.9-13.5 10.9-5.6 1.9-11.6 1.9-16.5-1-4.8-2.9-7.8-8.1-8.8-13.9-1-5.8 0.1-12.2 3-17.2 2.9-4.9 8-8.9 13.5-10.9 5.6-1.9 11.6-1.9 16.5 1 4.9 2.9 7.8 8.1 8.8 13.9 1 5.9 0 12.2-3 17.2z"/><path fill-rule="evenodd" class="b" d="m32.3 31.8h-3.7v-6.3c0-1.7-0.7-2.7-2.1-2.7-1.5 0-2.2 1-2.2 2.7v6.3h-3.6v-12h3.6v1.6c0 0 1-2 3.6-2 2.5 0 4.4 1.6 4.4 4.8zm-15.8-13.6c-1.3 0-2.2-1-2.2-2.2 0-1.2 0.9-2.2 2.2-2.2 1.2 0 2.2 1 2.2 2.2 0 1.2-1 2.2-2.2 2.2zm-1.9 1.6h3.7v12h-3.7z"/></svg>