<svg version="1.2" xmlns="http://www.w3.org/2000/svg" viewBox="0 0 46 49" width="46" height="49"><style>.a{fill:none;stroke:#331b3b;stroke-width:2}.b{fill:#331b3b}</style><path fill-rule="evenodd" class="a" d="m40.7 35.4c-2.9 4.9-7.9 8.9-13.5 10.9-5.6 1.9-11.6 1.9-16.5-1-4.8-2.9-7.8-8.1-8.8-13.9-1-5.8 0.1-12.2 3-17.2 2.9-4.9 8-8.9 13.5-10.9 5.6-1.9 11.6-1.9 16.5 1 4.9 2.9 7.8 8.1 8.8 13.9 1 5.9 0 12.2-3 17.2z"/><path fill-rule="evenodd" class="b" d="m24.6 33.8v-9h2.8l0.4-4h-3.2v-1.9c0-1.1 0.1-2.1 1.5-2.1h1.5v-2.9c0 0-1.3-0.1-2.6-0.1-2.6 0-4.3 1.7-4.3 4.7v2.3h-2.9v4h2.9v9z"/></svg>