<?xml version="1.0" encoding="utf-8"?>
<!-- Generator: Adobe Illustrator 27.5.0, SVG Export Plug-In . SVG Version: 6.00 Build 0)  -->
<svg version="1.1" xmlns="http://www.w3.org/2000/svg" xmlns:xlink="http://www.w3.org/1999/xlink" x="0px" y="0px"
	 viewBox="0 0 500 500" style="enable-background:new 0 0 500 500;" xml:space="preserve">
<g id="Background_Complete">
	<g>
		<rect y="382.398" style="fill:#EBEBEB;" width="500" height="0.25"/>
		<rect x="416.779" y="398.494" style="fill:#EBEBEB;" width="33.122" height="0.25"/>
		<rect x="322.527" y="401.208" style="fill:#EBEBEB;" width="8.693" height="0.25"/>
		<rect x="396.586" y="389.208" style="fill:#EBEBEB;" width="19.192" height="0.25"/>
		<rect x="52.459" y="390.888" style="fill:#EBEBEB;" width="43.193" height="0.25"/>
		<rect x="104.556" y="390.888" style="fill:#EBEBEB;" width="6.333" height="0.25"/>
		<rect x="131.471" y="395.111" style="fill:#EBEBEB;" width="93.676" height="0.25"/>
		<path style="fill:#EBEBEB;" d="M237.014,337.8H43.915c-3.147,0-5.708-2.561-5.708-5.708V60.66c0-3.147,2.561-5.708,5.708-5.708
			h193.099c3.146,0,5.707,2.561,5.707,5.708v271.432C242.721,335.239,240.16,337.8,237.014,337.8z M43.915,55.203
			c-3.01,0-5.458,2.448-5.458,5.458v271.432c0,3.01,2.448,5.458,5.458,5.458h193.099c3.009,0,5.457-2.448,5.457-5.458V60.66
			c0-3.009-2.448-5.458-5.457-5.458H43.915z"/>
		<path style="fill:#EBEBEB;" d="M453.31,337.8H260.212c-3.147,0-5.707-2.561-5.707-5.708V60.66c0-3.147,2.561-5.708,5.707-5.708
			H453.31c3.148,0,5.708,2.561,5.708,5.708v271.432C459.019,335.239,456.458,337.8,453.31,337.8z M260.212,55.203
			c-3.009,0-5.457,2.448-5.457,5.458v271.432c0,3.01,2.448,5.458,5.457,5.458H453.31c3.01,0,5.458-2.448,5.458-5.458V60.66
			c0-3.009-2.448-5.458-5.458-5.458H260.212z"/>
	</g>
	<g>
		<g>
			<rect x="396.661" y="228.017" style="fill:#F0F0F0;" width="25.084" height="10.831"/>
			<rect x="366.307" y="228.017" style="fill:#F0F0F0;" width="25.084" height="10.831"/>
			<rect x="335.953" y="228.017" style="fill:#F0F0F0;" width="25.084" height="10.831"/>
			<rect x="411.837" y="212.938" style="fill:#F0F0F0;" width="25.085" height="10.831"/>
			<rect x="381.484" y="212.938" style="fill:#F0F0F0;" width="25.084" height="10.831"/>
			<rect x="351.13" y="212.938" style="fill:#F0F0F0;" width="25.084" height="10.831"/>
			<rect x="320.776" y="212.938" style="fill:#F0F0F0;" width="25.084" height="10.831"/>
			<rect x="427.015" y="197.859" style="fill:#F0F0F0;" width="25.084" height="10.831"/>
			<rect x="396.661" y="197.859" style="fill:#F0F0F0;" width="25.084" height="10.831"/>
			<rect x="366.307" y="197.859" style="fill:#F0F0F0;" width="25.084" height="10.831"/>
			<rect x="335.953" y="197.859" style="fill:#F0F0F0;" width="25.084" height="10.831"/>
			<rect x="305.599" y="197.859" style="fill:#F0F0F0;" width="25.084" height="10.831"/>
			<rect x="411.837" y="182.779" style="fill:#F0F0F0;" width="25.085" height="10.831"/>
			<rect x="381.484" y="182.779" style="fill:#F0F0F0;" width="25.084" height="10.831"/>
			<rect x="351.13" y="182.779" style="fill:#F0F0F0;" width="25.084" height="10.831"/>
			<rect x="320.776" y="182.779" style="fill:#F0F0F0;" width="25.084" height="10.831"/>
		</g>
		<g>
			<rect x="173.26" y="371.621" style="fill:#F0F0F0;" width="25.085" height="10.831"/>
			<rect x="142.906" y="371.621" style="fill:#F0F0F0;" width="25.084" height="10.831"/>
			<rect x="188.437" y="356.542" style="fill:#F0F0F0;" width="25.084" height="10.831"/>
			<rect x="158.083" y="356.542" style="fill:#F0F0F0;" width="25.084" height="10.831"/>
			<rect x="72.119" y="364.379" style="fill:#F0F0F0;" width="25.084" height="10.831"/>
			<rect x="41.766" y="364.379" style="fill:#F0F0F0;" width="25.084" height="10.831"/>
			<rect x="173.26" y="341.462" style="fill:#F0F0F0;" width="25.085" height="10.831"/>
			<rect x="142.906" y="341.462" style="fill:#F0F0F0;" width="25.084" height="10.831"/>
			<rect x="56.943" y="349.3" style="fill:#F0F0F0;" width="25.084" height="10.831"/>
			<rect x="433.15" y="360.382" style="fill:#F0F0F0;" width="25.084" height="10.831"/>
			<rect x="402.796" y="360.382" style="fill:#F0F0F0;" width="25.084" height="10.831"/>
			<rect x="417.973" y="345.303" style="fill:#F0F0F0;" width="25.084" height="10.831"/>
			<rect x="424.38" y="131.758" style="fill:#F0F0F0;" width="25.084" height="10.831"/>
			<rect x="394.026" y="131.758" style="fill:#F0F0F0;" width="25.084" height="10.831"/>
			<rect x="409.203" y="116.678" style="fill:#F0F0F0;" width="25.084" height="10.831"/>
		</g>
		<g>
			<rect x="315.822" y="348.138" style="fill:#F0F0F0;" width="25.084" height="10.831"/>
			<rect x="285.468" y="348.138" style="fill:#F0F0F0;" width="25.084" height="10.831"/>
			<rect x="330.999" y="333.059" style="fill:#F0F0F0;" width="25.085" height="10.831"/>
			<rect x="300.645" y="333.059" style="fill:#F0F0F0;" width="25.084" height="10.831"/>
			<rect x="270.291" y="333.059" style="fill:#F0F0F0;" width="25.084" height="10.831"/>
			<rect x="346.176" y="317.98" style="fill:#F0F0F0;" width="25.084" height="10.831"/>
			<rect x="315.822" y="317.98" style="fill:#F0F0F0;" width="25.084" height="10.831"/>
			<rect x="285.468" y="317.98" style="fill:#F0F0F0;" width="25.084" height="10.831"/>
			<rect x="330.999" y="302.901" style="fill:#F0F0F0;" width="25.085" height="10.831"/>
			<rect x="300.645" y="302.901" style="fill:#F0F0F0;" width="25.084" height="10.831"/>
		</g>
		<g>
			<rect x="153.157" y="245.816" style="fill:#F0F0F0;" width="25.084" height="10.831"/>
			<rect x="122.803" y="245.816" style="fill:#F0F0F0;" width="25.084" height="10.831"/>
			<rect x="254.71" y="250.95" style="fill:#F0F0F0;" width="25.085" height="10.831"/>
			<rect x="168.334" y="230.737" style="fill:#F0F0F0;" width="25.084" height="10.831"/>
			<rect x="137.98" y="230.737" style="fill:#F0F0F0;" width="25.084" height="10.831"/>
			<rect x="269.887" y="235.871" style="fill:#F0F0F0;" width="25.084" height="10.831"/>
			<rect x="239.533" y="235.871" style="fill:#F0F0F0;" width="25.084" height="10.831"/>
			<rect x="153.157" y="215.657" style="fill:#F0F0F0;" width="25.084" height="10.831"/>
			<rect x="122.803" y="215.657" style="fill:#F0F0F0;" width="25.084" height="10.831"/>
			<rect x="168.334" y="200.578" style="fill:#F0F0F0;" width="25.084" height="10.831"/>
			<rect x="137.98" y="200.578" style="fill:#F0F0F0;" width="25.084" height="10.831"/>
		</g>
		<g>
			<rect x="140.271" y="162.16" style="fill:#F0F0F0;" width="25.084" height="10.831"/>
			<rect x="109.917" y="162.16" style="fill:#F0F0F0;" width="25.084" height="10.831"/>
			<rect x="79.563" y="162.16" style="fill:#F0F0F0;" width="25.084" height="10.831"/>
			<rect x="49.209" y="162.16" style="fill:#F0F0F0;" width="25.084" height="10.831"/>
			<rect x="155.448" y="147.081" style="fill:#F0F0F0;" width="25.085" height="10.831"/>
			<rect x="125.094" y="147.081" style="fill:#F0F0F0;" width="25.084" height="10.831"/>
			<rect x="64.386" y="147.081" style="fill:#F0F0F0;" width="25.084" height="10.831"/>
			<rect x="170.625" y="132.001" style="fill:#F0F0F0;" width="25.084" height="10.831"/>
			<rect x="140.271" y="132.001" style="fill:#F0F0F0;" width="25.084" height="10.831"/>
			<rect x="109.917" y="132.001" style="fill:#F0F0F0;" width="25.084" height="10.831"/>
			<rect x="155.448" y="116.922" style="fill:#F0F0F0;" width="25.085" height="10.831"/>
			<rect x="125.094" y="116.922" style="fill:#F0F0F0;" width="25.084" height="10.831"/>
			<rect x="94.74" y="116.922" style="fill:#F0F0F0;" width="25.084" height="10.831"/>
		</g>
		<g>
			<rect x="311.872" y="162.856" style="fill:#F0F0F0;" width="25.084" height="10.831"/>
			<rect x="281.518" y="162.856" style="fill:#F0F0F0;" width="25.084" height="10.831"/>
			<rect x="251.164" y="162.856" style="fill:#F0F0F0;" width="25.084" height="10.831"/>
			<rect x="327.049" y="147.777" style="fill:#F0F0F0;" width="25.085" height="10.831"/>
			<rect x="296.695" y="147.777" style="fill:#F0F0F0;" width="25.084" height="10.831"/>
			<rect x="266.341" y="147.777" style="fill:#F0F0F0;" width="25.084" height="10.831"/>
			<rect x="235.987" y="147.777" style="fill:#F0F0F0;" width="25.084" height="10.831"/>
			<rect x="342.226" y="132.697" style="fill:#F0F0F0;" width="25.084" height="10.831"/>
			<rect x="311.872" y="132.697" style="fill:#F0F0F0;" width="25.084" height="10.831"/>
			<rect x="281.518" y="132.697" style="fill:#F0F0F0;" width="25.084" height="10.831"/>
			<rect x="251.164" y="132.697" style="fill:#F0F0F0;" width="25.084" height="10.831"/>
			<rect x="327.049" y="117.618" style="fill:#F0F0F0;" width="25.085" height="10.831"/>
			<rect x="296.695" y="117.618" style="fill:#F0F0F0;" width="25.084" height="10.831"/>
			<rect x="266.341" y="117.618" style="fill:#F0F0F0;" width="25.084" height="10.831"/>
			<rect x="235.987" y="117.618" style="fill:#F0F0F0;" width="25.084" height="10.831"/>
		</g>
		<polygon style="fill:#F0F0F0;" points="433.939,82.278 401.06,82.278 401.06,94.911 367.286,94.911 367.286,82.278 
			334.407,82.278 334.407,94.911 300.633,94.911 300.633,82.278 267.754,82.278 267.754,94.911 233.98,94.911 233.98,82.278 
			201.101,82.278 201.101,94.911 167.327,94.911 167.327,82.278 134.449,82.278 134.449,94.911 100.674,94.911 100.674,82.278 
			67.796,82.278 67.796,94.911 43.809,94.911 43.809,99.872 457.925,99.872 457.925,94.911 433.939,94.911 		"/>
	</g>
</g>
<g id="Background_Simple" style="display:none;">
	<g style="display:inline;">
		<path style="fill:#407BFF;" d="M104.556,101.625c27.919-59.449,127.059-51.062,165.317-9.255
			c38.258,41.806,50.696,68.599,85.208,52.983c34.512-15.616,78.518-11.44,81.043,38.164s-37.913,108.263-102.09,125.615
			c-64.177,17.352-64.161,78.759-149.1,66.368c-46.31-6.756-47.365-56.86-40.825-98.301S72.177,170.569,104.556,101.625z"/>
		<path style="opacity:0.9;fill:#FFFFFF;" d="M104.556,101.625c27.919-59.449,127.059-51.062,165.317-9.255
			c38.258,41.806,50.696,68.599,85.208,52.983c34.512-15.616,78.518-11.44,81.043,38.164s-37.913,108.263-102.09,125.615
			c-64.177,17.352-64.161,78.759-149.1,66.368c-46.31-6.756-47.365-56.86-40.825-98.301S72.177,170.569,104.556,101.625z"/>
	</g>
</g>
<g id="Shadow_1_">
	<ellipse id="_x3C_Path_x3E__359_" style="fill:#F5F5F5;" cx="250" cy="416.238" rx="193.889" ry="11.323"/>
</g>
<g id="Wall_2">
	<g>
		<g>
			<polygon style="fill:#407BFF;" points="437.14,142.026 395.164,142.026 383.791,167.325 434.585,171.566 437.14,163.347 			"/>
			<polygon style="fill:#407BFF;" points="437.14,144.731 382.605,144.731 382.605,164.686 354.679,164.686 354.679,176.715 
				361.552,176.715 361.552,197.914 345.918,197.914 345.918,223.429 333.751,223.429 333.751,237.108 358.966,237.108 
				358.966,258.768 346.892,258.768 346.892,269.752 329.371,269.752 329.371,288.293 352.395,288.293 352.395,302.351 
				320.717,302.351 320.717,320.48 330.344,320.48 330.344,340.641 298.787,340.641 298.787,350.744 276.672,350.744 
				276.672,362.777 269.59,362.777 269.59,388.549 248.359,388.549 248.359,399.666 227.35,399.666 227.35,416.238 437.14,416.238 
							"/>
			<polygon style="opacity:0.2;fill:#FFFFFF;enable-background:new    ;" points="437.14,144.731 395.522,144.731 395.522,164.686 
				367.596,164.686 367.596,176.715 374.47,176.715 374.47,197.914 358.836,197.914 358.836,223.429 346.668,223.429 
				346.668,237.108 371.883,237.108 371.883,258.768 359.809,258.768 359.809,269.752 342.288,269.752 342.288,288.293 
				365.312,288.293 365.312,302.351 333.634,302.351 333.634,320.48 343.262,320.48 343.262,340.641 311.704,340.641 
				311.704,350.744 289.589,350.744 289.589,362.777 282.507,362.777 282.507,388.549 261.276,388.549 261.276,399.666 
				240.267,399.666 240.267,416.238 437.14,416.238 			"/>
			<g>
				<polygon style="fill:#407BFF;" points="437.14,142.026 413.049,142.026 416.699,155.695 424.73,159.345 413.049,157.52 
					407.939,161.9 409.399,169.125 407.939,174.409 400.639,179.171 392.244,182.876 402.099,189.732 418.159,188.32 
					424.73,184.316 418.889,191.543 429.11,196.374 410.677,192.13 395.894,194.252 390.419,206.159 383.118,211.113 
					383.118,229.427 391.879,231.53 392.244,238.58 399.544,242.517 406.114,244.509 419.62,235.632 429.11,237.853 418.525,238.58 
					408.669,246.668 404.289,250.967 406.114,253.514 413.049,257.568 419.255,253.787 425.825,258.768 418.525,257.568 
					411.589,261.772 406.114,258.768 394.799,261.772 384.943,268.175 384.578,274.633 389.689,283.004 399.909,286.738 
					412.319,285.184 419.255,293.497 410.859,288.293 398.084,288.293 387.864,285.184 375.818,290.388 371.803,300.796 
					373.993,311.788 365.963,319.519 353.552,323.037 356.838,337.532 367.423,342.258 379.833,343.013 383.848,343.013 
					397.719,335.915 407.209,337.226 396.624,339.087 386.163,344.785 376.913,346.474 372.168,350.744 375.453,359.736 
					383.483,365.211 371.438,361.196 368.153,351.711 361.948,344.785 353.552,342.258 330.557,353.266 325.853,366.671 
					311.211,374.336 316.322,382.001 321.842,385.246 341.872,387.112 321.842,388.572 315.957,386.017 298.464,397.534 
					300.991,402.37 295.516,405.79 292.231,407.26 289.004,416.238 437.14,416.238 				"/>
				<polygon style="opacity:0.6;fill:#FFFFFF;enable-background:new    ;" points="437.14,142.026 413.049,142.026 416.699,155.695 
					424.73,159.345 413.049,157.52 407.939,161.9 409.399,169.125 407.939,174.409 400.639,179.171 392.244,182.876 
					402.099,189.732 418.159,188.32 424.73,184.316 418.889,191.543 429.11,196.374 410.677,192.13 395.894,194.252 
					390.419,206.159 383.118,211.113 383.118,229.427 391.879,231.53 392.244,238.58 399.544,242.517 406.114,244.509 
					419.62,235.632 429.11,237.853 418.525,238.58 408.669,246.668 404.289,250.967 406.114,253.514 413.049,257.568 
					419.255,253.787 425.825,258.768 418.525,257.568 411.589,261.772 406.114,258.768 394.799,261.772 384.943,268.175 
					384.578,274.633 389.689,283.004 399.909,286.738 412.319,285.184 419.255,293.497 410.859,288.293 398.084,288.293 
					387.864,285.184 375.818,290.388 371.803,300.796 373.993,311.788 365.963,319.519 353.552,323.037 356.838,337.532 
					367.423,342.258 379.833,343.013 383.848,343.013 397.719,335.915 407.209,337.226 396.624,339.087 386.163,344.785 
					376.913,346.474 372.168,350.744 375.453,359.736 383.483,365.211 371.438,361.196 368.153,351.711 361.948,344.785 
					353.552,342.258 330.557,353.266 325.853,366.671 311.211,374.336 316.322,382.001 321.842,385.246 341.872,387.112 
					321.842,388.572 315.957,386.017 298.464,397.534 300.991,402.37 295.516,405.79 292.231,407.26 289.004,416.238 
					437.14,416.238 				"/>
			</g>
		</g>
		<path style="fill:#407BFF;" d="M425.182,416.238c0,0-8.149-15.983-4.193-18.632c3.956-2.65,6.459,12.105,6.459,12.105
			s0.152-28.293,7.33-27.063c7.178,1.231,1.001,25.313,1.001,25.313s13.298-48.609,24.375-46.631
			c11.077,1.978-16.354,50.003-16.354,50.003s17.893-22.86,21.497-17.849c3.605,5.011-12.957,19.063-12.957,19.063
			s18.335-0.788,13.47,4.657L425.182,416.238z"/>
	</g>
</g>
<g id="Character">
	<g id="_x3C_Group_x3E__92_">
		<g>
			<path style="fill:#407BFF;" d="M278.012,187.693c10.26,2.88,28.293,11.089,34.159,15.048s5.407,15.602,5.407,15.602l-6.979,0.484
				c0,0-3.566-7.306-6.507-9.225c-2.941-1.919-28.878-6.906-28.878-6.906L278.012,187.693z"/>
			<path style="opacity:0.6;fill:#FFFFFF;enable-background:new    ;" d="M317.58,218.34l-6.98,0.49c0,0-3.57-7.31-6.51-9.23
				c-2.05-1.34-15.25-4.16-23.07-5.75c-3.42-0.69-5.81-1.15-5.81-1.15l0.74-3.99l2.06-11.02c10.26,2.88,28.29,11.09,34.16,15.05
				C318.04,206.7,317.58,218.34,317.58,218.34z"/>
			<path style="opacity:0.2;enable-background:new    ;" d="M281.02,203.85c-3.42-0.69-5.81-1.15-5.81-1.15l0.74-3.99
				C277.67,199.75,279.67,201.39,281.02,203.85z"/>
		</g>
		<g>
			<path style="fill:#407BFF;" d="M221.886,233.082c0,0,12.552-36.111,10.254-55.149c0,0,14.043-0.342,27.08,2.803
				c13.037,3.145,18.792,6.957,18.792,6.957s-1.173,23.694-18.003,56.578L221.886,233.082z"/>
			<path style="opacity:0.7;fill:#FFFFFF;enable-background:new    ;" d="M278.01,187.69c0,0-1.17,23.7-18,56.58l-38.12-11.19
				c0,0,5.25-15.09,8.33-30.91c0.86-4.4,1.55-8.86,1.92-13.07c0.35-4.05,0.4-7.87,0-11.17c0,0,14.04-0.34,27.08,2.81
				C272.26,183.88,278.01,187.69,278.01,187.69z"/>
			<path style="opacity:0.2;enable-background:new    ;" d="M230.22,202.17c0.86-4.4,1.55-8.86,1.92-13.07l1.21-0.71
				C233.35,188.39,234.9,194.9,230.22,202.17z"/>
		</g>
		<polygon style="fill:#EBB376;" points="131.276,298.23 129.447,306.18 146.632,309.802 148.461,301.852 		"/>
		<path style="fill:#263238;" d="M130.568,306.737l2.488-8.977c0.098-0.306-0.033-0.638-0.315-0.793l-6.099-3.095
			c-0.598-0.26-1.293,0.014-1.552,0.612c-0.032,0.074-0.056,0.15-0.073,0.229c-0.807,3.111-1.099,4.758-2.176,8.662
			c-0.659,2.397-2.643,12.307-1.903,15.521c0.74,3.214,3.823,2.66,3.91,1.233c0.437-7.201,2.749-10.656,4.918-12.217
			C130.156,307.62,130.438,307.207,130.568,306.737z"/>
		<polygon style="opacity:0.2;enable-background:new    ;" points="148.461,301.852 146.632,309.802 137.769,307.927 
			139.598,299.977 		"/>
		<path style="fill:#263238;" d="M129.412,307.059c0.033-0.072,0.107-0.115,0.186-0.109c0.071,0.003,0.13,0.054,0.142,0.124
			c0.099,0.325,0.835,3.216,0.176,4.003c-0.149,0.159-0.371,0.227-0.583,0.178c-0.358-0.039-0.668-0.268-0.81-0.599
			c-0.157-0.528-0.142-1.093,0.041-1.612C128.779,308.354,129.063,307.69,129.412,307.059z M129.498,307.65
			c-0.544,0.837-0.771,1.841-0.642,2.83c0.092,0.233,0.312,0.391,0.562,0.404c0.084,0.027,0.175-0.001,0.229-0.07
			c0.054-0.07,0.094-0.149,0.117-0.234C129.854,309.595,129.763,308.602,129.498,307.65z"/>
		<path style="fill:#263238;" d="M129.435,306.999c0.042-0.056,0.116-0.079,0.182-0.055c0.12,0.016,2.19,0.701,2.637,1.788
			c0.113,0.271,0.113,0.577-0.003,0.848c-0.065,0.287-0.32,0.49-0.614,0.491c-0.866-0.029-2.049-1.988-2.235-2.904l-0.026-0.086
			C129.388,307.048,129.408,307.02,129.435,306.999z M131.918,309.378c0.044-0.156,0.034-0.322-0.029-0.472
			c-0.283-0.687-1.452-1.23-2.047-1.466c0.349,0.939,1.29,2.241,1.796,2.254c0.051-0.005,0.158,0.004,0.253-0.234L131.918,309.378
			L131.918,309.378z"/>
		<polygon style="fill:#EBB376;" points="263.753,411.333 271.504,410.029 269.125,391.963 261.364,393.269 		"/>
		<path style="fill:#263238;" d="M272.428,408.951l-9.418,1.584c-0.317,0.055-0.554,0.322-0.571,0.644l-0.368,7.16
			c-0.027,0.64,0.47,1.181,1.11,1.207c0.086,0.004,0.171-0.002,0.256-0.017c3.039-0.562,5.226-1.122,9.052-1.766
			c2.357-0.396,9.509-1.346,12.763-1.893c3.254-0.547,3.138-3.833,1.757-3.905c-6.195-0.297-10.995-1.345-13.197-2.739
			C273.403,408.959,272.908,408.861,272.428,408.951z"/>
		<polygon style="opacity:0.2;enable-background:new    ;" points="261.366,393.279 269.127,391.973 270.349,401.29 
			262.588,402.595 		"/>
		<path style="fill:#263238;" d="M273.141,409.936c-0.077-0.007-0.142-0.06-0.165-0.135c-0.025-0.07-0.001-0.148,0.059-0.192
			c0.246-0.224,2.492-2.184,3.425-1.884c0.213,0.06,0.371,0.241,0.402,0.46c0.115,0.364,0.032,0.762-0.219,1.051
			c-0.387,0.371-0.889,0.598-1.423,0.645C274.532,409.976,273.835,409.995,273.141,409.936z M273.631,409.59
			c0.956,0.153,1.935-0.062,2.738-0.602c0.158-0.198,0.208-0.46,0.135-0.702c-0.035-0.146-0.105-0.205-0.155-0.197
			c-0.079-0.027-0.164-0.03-0.245-0.01C275.191,408.42,274.351,408.933,273.631,409.59z"/>
		<path style="fill:#263238;" d="M273.099,409.984c-0.062-0.028-0.107-0.085-0.117-0.153c-0.008-0.11-0.196-2.37,0.579-3.251
			c0.182-0.223,0.451-0.357,0.739-0.368c0.287-0.049,0.569,0.111,0.673,0.384c0.295,0.792-0.966,2.758-1.692,3.327l-0.089,0.015
			C273.167,409.963,273.134,409.979,273.099,409.984z M273.834,406.758c-0.428,0.788-0.606,1.688-0.509,2.58
			c0.698-0.736,1.466-2.193,1.283-2.68c-0.018-0.048-0.061-0.182-0.298-0.143l-0.089,0.015
			C274.069,406.556,273.931,406.637,273.834,406.758z"/>
		<g>
			<path style="fill:#263238;" d="M248.614,271.284c0,0-27.764,36.551-41.421,44.346c-13.657,7.795-64.684-3.028-64.684-3.028
				l1.816-13.891c0,0,46.637,1.51,53.628-1.585c6.991-3.095,28.095-41.361,28.095-41.361L248.614,271.284z"/>
			<path style="opacity:0.2;enable-background:new    ;" d="M248.614,271.284c0,0-27.764,36.551-41.421,44.346
				c-13.657,7.795-64.684-3.028-64.684-3.028l1.816-13.891c0,0,46.637,1.51,53.628-1.585c6.991-3.095,28.095-41.361,28.095-41.361
				L248.614,271.284z"/>
		</g>
		<path style="fill:#EBB376;" d="M266.14,184.89h-11.05c-1.84-1.9-3.27-4.19-4.13-6.76c5.28-1.75,8.76-11.76,10.21-17.44l2.71,6.04
			l3.2,7.12c-1.29,1.58-2.44,3.28-2.86,5.05C263.74,180.85,264.13,182.88,266.14,184.89z"/>
		<path style="opacity:0.2;enable-background:new    ;" d="M267.08,173.85c-1.29,1.58-2.44,3.28-2.86,5.05
			c-3.98-1.63-5.01-7.42-4.28-9.5c0.25-0.82,2.71-1.87,3.94-2.67L267.08,173.85z"/>
		<path style="fill:#263238;" d="M274.191,394.859l-16.291,1.107c-2.201-51.429-23.065-91.472-32.188-106.855
			c-9.113-15.381-15.484-33.601-3.828-56.029l38.121,11.187c-0.927,3.852-1.956,7.248-3.001,10.227
			c-4.021,11.395-8.364,16.535-8.364,16.535C275.373,329.975,274.191,394.859,274.191,394.859z"/>
		<path style="opacity:0.2;enable-background:new    ;" d="M257.004,254.496c-4.021,11.395-8.364,16.535-8.364,16.535
			s-2.583-7.085-5.401-11.991c0.248,0.184,4.223,3.104,5.016,4.519C248.255,263.558,252.32,261.014,257.004,254.496z"/>
		<g>
			<polygon style="fill:#263238;" points="138.107,313.386 142.798,296.345 147.539,297.46 142.976,315.225 			"/>
			<polygon style="opacity:0.3;fill:#FFFFFF;enable-background:new    ;" points="138.107,313.386 142.798,296.345 147.539,297.46 
				142.976,315.225 			"/>
		</g>
		<g>
			<polygon style="fill:#263238;" points="275.364,398.915 258.639,401.728 255.528,395.657 275.1,393.484 			"/>
			<polygon style="opacity:0.3;fill:#FFFFFF;enable-background:new    ;" points="275.364,398.915 258.639,401.728 255.528,395.657 
				275.1,393.484 			"/>
		</g>
		<g>
			<path style="fill:#EBB376;" d="M260.901,155.233c-1.466,7.655-2.688,12.075,0.157,16.896c4.256,7.285,14.45,6.186,18.189-0.89
				c3.34-6.375,5.145-17.846-1.483-22.722c-4.714-3.518-11.387-2.549-14.905,2.165C261.858,152.023,261.187,153.583,260.901,155.233
				z"/>
			<path style="fill:#263238;" d="M271.821,160.247c-0.197,0.598,0.039,1.192,0.448,1.295c0.408,0.103,0.853-0.32,1.011-0.93
				c0.159-0.611-0.049-1.195-0.448-1.295C272.434,159.217,271.983,159.626,271.821,160.247z"/>
			<path style="fill:#263238;" d="M278.769,162.007c-0.197,0.598,0.049,1.195,0.448,1.295c0.399,0.1,0.853-0.32,1.011-0.93
				c0.159-0.611-0.049-1.195-0.448-1.295C279.382,160.977,278.918,161.424,278.769,162.007z"/>
			<path style="fill:#D58745;" d="M276.485,161.75c0.255,2.065,0.796,4.085,1.604,6.002c-1.01,0.395-2.142,0.322-3.093-0.197
				L276.485,161.75z"/>
			<path style="fill:#263238;" d="M274.194,158.036c-0.041-0.133-0.15-0.234-0.285-0.265c-0.931-0.173-1.725-0.774-2.144-1.624
				c-0.074-0.191-0.288-0.286-0.478-0.212c-0.191,0.074-0.286,0.288-0.212,0.478c0,0.001,0.001,0.001,0.001,0.002
				c0.502,1.087,1.499,1.863,2.676,2.082c0.199,0.048,0.398-0.074,0.446-0.273c0.001-0.003,0.001-0.006,0.002-0.009
				C274.207,158.156,274.206,158.095,274.194,158.036z"/>
			<path style="fill:#263238;" d="M267.67,165.981L267.67,165.981c1.85,0.213,3.48,1.315,4.367,2.952
				c0.044,0.099,0.002,0.215-0.095,0.262c-0.093,0.048-0.208,0.011-0.256-0.082c-0.002-0.005-0.004-0.009-0.006-0.013
				c-0.852-1.497-2.359-2.506-4.068-2.723c-0.105-0.009-0.182-0.102-0.172-0.206c0.001-0.007,0.002-0.014,0.003-0.021
				c0.009-0.104,0.102-0.182,0.206-0.172C267.656,165.979,267.663,165.98,267.67,165.981z"/>
			<path style="fill:#263238;" d="M278.961,159.491c-0.067,0.035-0.121,0.09-0.154,0.157c-0.055,0.197,0.06,0.401,0.257,0.456
				c0.003,0.001,0.005,0.001,0.008,0.002c1.154,0.331,2.398,0.079,3.333-0.675c0.151-0.137,0.163-0.371,0.025-0.523l-0.001-0.001
				c-0.14-0.146-0.37-0.157-0.523-0.024l0,0c-0.755,0.574-1.737,0.756-2.648,0.493C279.146,159.369,279.038,159.411,278.961,159.491
				z"/>
			<path style="fill:#263238;" d="M261.074,161.921c0,0,7.056-2.07,7.875-11.159c0,0,7.152-1.123,12.773,3.917
				c0,0,1.808-1.869,2.086-4.3c0.347-3.035-2.829-3.265-2.829-3.265c-0.822-3.778-16.518-6.579-21.003-3.748
				c-4.171,2.634-12.12,18.572-2.23,27.015C257.746,170.381,259.339,168.473,261.074,161.921z"/>
			<path style="fill:#EBB376;" d="M255.383,162.692c0.608,1.865,1.931,3.414,3.679,4.305c2.322,1.164,3.978-0.796,3.754-3.249
				c-0.22-2.178-1.672-5.477-4.212-5.597C256.064,158.031,254.666,160.393,255.383,162.692z"/>
			<path style="fill:none;stroke:#263238;stroke-width:0.5;stroke-linecap:round;stroke-linejoin:round;stroke-miterlimit:10;" d="
				M279.48,152.17c0,0,2.05,2.326,0.098,3.617c-1.57,1.038-3.003-0.671-2.799-1.713"/>
		</g>
		<polygon style="fill:#263238;" points="221.884,233.082 223.185,228.959 261.835,240.607 260.005,244.269 		"/>
		<polygon style="opacity:0.2;fill:#FFFFFF;" points="221.884,233.082 223.185,228.959 261.835,240.607 260.005,244.269 		"/>
		<path style="fill:#FFFFFF;" d="M250.709,237.361l-1.184,3.696c-0.095,0.297,0.079,0.614,0.381,0.692l6.019,1.554
			c0.267,0.069,0.542-0.073,0.642-0.329l1.408-3.621c0.118-0.303-0.055-0.64-0.369-0.722l-6.243-1.629
			C251.084,236.928,250.797,237.087,250.709,237.361z"/>
		<polygon style="fill:#263238;" points="242.845,234.884 241.463,239.876 239.534,239.623 241.086,234.354 		"/>
		<polygon style="fill:#263238;" points="227.386,230.225 225.568,235.061 224.195,234.881 226.144,229.851 		"/>
		<polygon style="fill:#263238;" points="260.39,240.171 258.686,244.954 259.684,245.569 261.835,240.607 		"/>
		<path style="fill:#407BFF;" d="M256.576,187.057l3.445,5.207c0,0-6.262,12.556-18.779,9.119
			c-12.517-3.437-17.861-0.707-17.861-0.707l-2.768,4.389l4.597,2.596c0,0,4.443-4.606,15.716-2.334
			c11.273,2.272,21.019-7.03,21.204-12.787l3.432-4.308l-4.326-4.387L256.576,187.057z"/>
		<g>
			<path style="fill:#407BFF;" d="M253.623,175.369c0,0,1.211,3.65,7.614,8.477c0,0,2.719-1.44,3.753-5.095l4.594,5.819
				c0,0-0.733,5.059-2.073,8.674l-6.454-8.025l-6.874,5.086c0,0-7.158-6.144-6.97-12.692L253.623,175.369z"/>
			<path style="opacity:0.6;fill:#FFFFFF;enable-background:new    ;" d="M253.623,175.369c0,0,1.211,3.65,7.614,8.477
				c0,0,2.719-1.44,3.753-5.095l4.594,5.819c0,0-0.733,5.059-2.073,8.674l-6.454-8.025l-6.874,5.086c0,0-7.158-6.144-6.97-12.692
				L253.623,175.369z"/>
		</g>
		<path style="fill:#EBB376;" d="M310.925,217.552c0,0,3.142-2.675,5.553-0.89l0.905,3.939c0,0,1.378,4.442,1.121,5.289
			c-0.258,0.848-3.957,4.479-4.881,4.211c-0.924-0.268-5.622-3.674-5.326-4.811c0.296-1.137,2.817-4.686,2.817-4.686
			L310.925,217.552z"/>
		<path style="fill:#407BFF;" d="M231.656,193.482c-10.26-2.88-28.577-11.089-34.443-15.048c-5.866-3.959-5.407-15.602-5.407-15.602
			l6.979-0.484c0,0,3.566,7.306,6.507,9.225c2.941,1.919,28.423,6.342,28.423,6.342
			C235.824,183.846,231.656,193.482,231.656,193.482z"/>
		<path style="opacity:0.6;fill:#FFFFFF;enable-background:new    ;" d="M231.656,193.482c-10.26-2.88-28.577-11.089-34.443-15.048
			c-5.866-3.959-5.407-15.602-5.407-15.602l6.979-0.484c0,0,3.566,7.306,6.507,9.225c2.941,1.919,28.423,6.342,28.423,6.342
			C235.824,183.846,231.656,193.482,231.656,193.482z"/>
		<path style="fill:#EBB376;" d="M198.459,163.622c0,0-3.142,2.675-5.553,0.89L192,160.573c0,0-1.378-4.441-1.121-5.29
			c0.258-0.848,3.957-4.479,4.881-4.211c0.924,0.268,5.622,3.674,5.326,4.811c-0.296,1.137-2.817,4.686-2.817,4.686L198.459,163.622
			z"/>
	</g>
</g>
<g id="Wall_1">
	<g>
		<g>
			<polygon style="fill:#407BFF;" points="213.287,399.666 213.287,388.549 228.963,388.549 228.963,362.777 221.881,362.777 
				221.881,350.744 199.766,350.744 199.766,340.641 168.208,340.641 168.208,320.48 177.836,320.48 177.836,302.351 
				146.158,302.351 146.158,288.293 169.182,288.293 169.182,269.752 151.661,269.752 151.661,258.768 139.587,258.768 
				139.587,237.108 164.802,237.108 164.802,223.429 152.634,223.429 152.634,197.914 137.001,197.914 137.001,176.715 
				143.874,176.715 143.874,164.686 115.948,164.686 115.948,144.731 58.989,144.731 58.989,416.238 234.296,416.238 
				234.296,399.666 			"/>
			<polygon style="opacity:0.2;fill:#FFFFFF;enable-background:new    ;" points="213.287,399.666 213.287,388.549 228.963,388.549 
				228.963,362.777 221.881,362.777 221.881,350.744 199.766,350.744 199.766,340.641 168.208,340.641 168.208,320.48 
				177.836,320.48 177.836,302.351 146.158,302.351 146.158,288.293 169.182,288.293 169.182,269.752 151.661,269.752 
				151.661,258.768 139.587,258.768 139.587,237.108 164.802,237.108 164.802,223.429 152.634,223.429 152.634,197.914 
				137.001,197.914 137.001,176.715 143.874,176.715 143.874,164.686 115.948,164.686 115.948,144.731 58.989,144.731 
				58.989,416.238 234.296,416.238 234.296,399.666 			"/>
			<g>
				<path style="fill:#407BFF;" d="M58.989,416.238h175.307l-1.642-6.753l-7.082-5.835l-16.279,2.14l7.686-3.523v-7.024
					l-11.011-5.602l6.924-7.369l-6.924-12.067l-15.856,2.906l-13.345-6.728l4.761-12.366l-19.361-8.477l-4.38,2.678l-15.407,2.749
					l12-6.728l5.354-7.013l-9.883-7.882l-13.239-1.944l-9.251-5.011l-11.361,1.75l10.256-6.423l10.228,5.32l13.368,1.686
					l9.883-4.243v-7.649l-9.883-3.72v-11.35l-13.239-7.762l-0.56-12.149c0,0-12.332,1.219-10.75,2.113
					c1.582,0.894-3.622,3.513-3.622,3.513l-13.175,7.211l8.215-7.682l-8.215-8.372l7.495,4.273l28.557-9.411l-1.276-6.639
					l-10.508-1.083l-1.093-7.009l4.663-5.779l-3.57-6.467l-7.471,1.009l-16.797-9.429l16.83,4.774l28.073-9.93v-1.98l-5.84-3.532
					v-7.896l-6.874-3.469l3.863-9.821l-3.863-11.893l-13.333-4.635l-2.677-11.305l-13.618-5.284l2.433-13.53l-12.167-13.569H58.989
					V416.238z"/>
				<path style="opacity:0.6;fill:#FFFFFF;enable-background:new    ;" d="M58.989,416.238h175.307l-1.642-6.753l-7.082-5.835
					l-16.279,2.14l7.686-3.523v-7.024l-11.011-5.602l6.924-7.369l-6.924-12.067l-15.856,2.906l-13.345-6.728l4.761-12.366
					l-19.361-8.477l-4.38,2.678l-15.407,2.749l12-6.728l5.354-7.013l-9.883-7.882l-13.239-1.944l-9.251-5.011l-11.361,1.75
					l10.256-6.423l10.228,5.32l13.368,1.686l9.883-4.243v-7.649l-9.883-3.72v-11.35l-13.239-7.762l-0.56-12.149
					c0,0-12.332,1.219-10.75,2.113c1.582,0.894-3.622,3.513-3.622,3.513l-13.175,7.211l8.215-7.682l-8.215-8.372l7.495,4.273
					l28.557-9.411l-1.276-6.639l-10.508-1.083l-1.093-7.009l4.663-5.779l-3.57-6.467l-7.471,1.009l-16.797-9.429l16.83,4.774
					l28.073-9.93v-1.98l-5.84-3.532v-7.896l-6.874-3.469l3.863-9.821l-3.863-11.893l-13.333-4.635l-2.677-11.305l-13.618-5.284
					l2.433-13.53l-12.167-13.569H58.989V416.238z"/>
			</g>
		</g>
		<path style="fill:#407BFF;" d="M72.981,416.238c0,0,11.075-18.216,9.743-21.273c-1.332-3.057-11.544,10.637-11.544,10.637
			s5.823-26.126,1.802-28.79c-4.022-2.664-8.018,24.114-8.018,24.114s-1.357-39.655-8.893-39.655s1.788,42.258,1.788,42.258
			s-10.656-23.074-15.985-17.348c-5.328,5.727,10.966,19.136,10.966,19.136s-14.883-4.796-12.036,1.332
			c2.847,6.128,15.307,9.589,15.307,9.589H72.981z"/>
	</g>
</g>
<g id="Bricks">
	<g>
		<g>
			<polygon style="fill:#407BFF;" points="322.527,187.54 326.907,176.398 338.587,176.227 352.092,189.394 349.419,198.746 
				338.952,198.746 			"/>
			<polygon style="opacity:0.2;fill:#FFFFFF;enable-background:new    ;" points="338.587,176.227 335.546,186.826 349.419,198.746 
				352.092,189.394 			"/>
			<polygon style="opacity:0.2;enable-background:new    ;" points="322.527,187.54 335.546,186.826 349.419,198.746 
				338.952,198.746 			"/>
		</g>
		<g>
			<polygon style="fill:#407BFF;" points="390.89,304.279 391.367,294.482 400.388,291.285 414.325,297.963 414.703,305.923 
				406.578,308.669 			"/>
			<polygon style="opacity:0.2;fill:#FFFFFF;enable-background:new    ;" points="400.388,291.285 400.807,300.31 414.703,305.923 
				414.325,297.963 			"/>
			<polygon style="opacity:0.2;enable-background:new    ;" points="390.89,304.279 400.807,300.31 414.703,305.923 
				406.578,308.669 			"/>
		</g>
		<g>
			<polygon style="fill:#407BFF;" points="280.55,287.71 298.564,272.863 307.196,272.863 310.846,280.484 293.734,298.119 
				284.201,298.669 			"/>
			<polygon style="opacity:0.2;fill:#FFFFFF;enable-background:new    ;" points="307.196,272.863 290.406,288.293 293.734,298.119 
				310.846,280.484 			"/>
			<polygon style="opacity:0.4;fill:#FFFFFF;enable-background:new    ;" points="280.55,287.71 290.406,288.293 307.196,272.863 
				298.564,272.863 			"/>
		</g>
		<g>
			<polygon style="fill:#407BFF;" points="212.202,94.651 227.533,82.015 234.88,82.015 237.987,88.501 223.423,103.51 
				215.309,103.978 			"/>
			<polygon style="opacity:0.2;fill:#FFFFFF;enable-background:new    ;" points="234.88,82.015 220.59,95.147 223.423,103.51 
				237.987,88.501 			"/>
			<polygon style="opacity:0.4;fill:#FFFFFF;enable-background:new    ;" points="212.202,94.651 220.59,95.147 234.88,82.015 
				227.533,82.015 			"/>
		</g>
		<g>
			<polygon style="fill:#407BFF;" points="163.382,252.595 170.682,242.517 190.111,244.509 195.503,252.145 190.111,260.088 
				170.682,258.768 			"/>
			<polygon style="opacity:0.2;fill:#FFFFFF;enable-background:new    ;" points="190.111,244.509 183.458,251.302 190.111,260.088 
				195.503,252.145 			"/>
			<polygon style="opacity:0.2;enable-background:new    ;" points="163.382,252.595 183.458,251.302 190.111,260.088 
				170.682,258.768 			"/>
		</g>
		<g>
			<polygon style="fill:#407BFF;" points="369.439,118.151 370.035,109.5 382.254,103.51 388.259,106.033 388.002,112.718 
				376.031,119.106 			"/>
			<polygon style="opacity:0.2;fill:#FFFFFF;enable-background:new    ;" points="382.254,103.51 380.828,109.98 388.002,112.718 
				388.259,106.033 			"/>
			<polygon style="opacity:0.2;enable-background:new    ;" points="369.439,118.151 380.828,109.98 388.002,112.718 
				376.031,119.106 			"/>
		</g>
		<g>
			<polygon style="fill:#407BFF;" points="304.831,413.355 305.414,400.924 322.756,391.943 331.451,395.374 331.294,404.974 
				314.32,414.517 			"/>
			<polygon style="opacity:0.2;fill:#FFFFFF;enable-background:new    ;" points="322.756,391.943 320.914,401.271 331.294,404.974 
				331.451,395.374 			"/>
			<polygon style="opacity:0.2;enable-background:new    ;" points="304.831,413.355 320.914,401.271 331.294,404.974 
				314.32,414.517 			"/>
		</g>
		<g>
			<polygon style="fill:#407BFF;" points="214.363,329.927 220.752,320.48 244.695,327.401 249.48,337.226 242.976,344.957 
				220.093,338.115 			"/>
			<polygon style="opacity:0.2;enable-background:new    ;" points="214.363,329.927 237.987,337.226 242.976,344.957 
				220.093,338.115 			"/>
			<polygon style="opacity:0.2;fill:#FFFFFF;enable-background:new    ;" points="244.695,327.401 237.987,337.226 242.976,344.957 
				249.48,337.226 			"/>
		</g>
	</g>
</g>
</svg>
