<?xml version="1.0" encoding="utf-8"?>
<!-- Generator: Adobe Illustrator 27.5.0, SVG Export Plug-In . SVG Version: 6.00 Build 0)  -->
<svg version="1.1" xmlns="http://www.w3.org/2000/svg" xmlns:xlink="http://www.w3.org/1999/xlink" x="0px" y="0px"
	 viewBox="0 0 500 500" style="enable-background:new 0 0 500 500;" xml:space="preserve">
<g id="Background_Simple">
	<g>
		<path style="fill:#92E3A9;" d="M469.911,288.827c12.671-59.135,1.228-120.768-36.511-171.637
			c-33.417-45.043-78.386-86.238-135.492-95.866c-60.886-10.265-115.243,13.18-146.94,65.792
			c-16.39,27.204-28.236,56.896-40.053,86.28c-9.115,22.665-17.099,48.421-32.283,67.949
			c-22.431,28.848-47.683,58.477-57.111,94.595c-7.553,28.934,1.984,55.571,25.984,73.154
			c39.252,28.759,85.788,30.828,132.581,28.476c28.565-1.436,56.923-6.035,84.655-12.966c24.865-6.213,49.155-16.156,74.784-18.828
			c38.287-3.991,71.001-2.003,96.721-35.657C454.043,346.834,463.837,317.175,469.911,288.827z"/>
		<path style="opacity:0.7;fill:#FFFFFF;" d="M469.911,288.827c12.671-59.135,1.228-120.768-36.511-171.637
			c-33.417-45.043-78.386-86.238-135.492-95.866c-60.886-10.265-115.243,13.18-146.94,65.792
			c-16.39,27.204-28.236,56.896-40.053,86.28c-9.115,22.665-17.099,48.421-32.283,67.949
			c-22.431,28.848-47.683,58.477-57.111,94.595c-7.553,28.934,1.984,55.571,25.984,73.154
			c39.252,28.759,85.788,30.828,132.581,28.476c28.565-1.436,56.923-6.035,84.655-12.966c24.865-6.213,49.155-16.156,74.784-18.828
			c38.287-3.991,71.001-2.003,96.721-35.657C454.043,346.834,463.837,317.175,469.911,288.827z"/>
	</g>
</g>
<g id="Clock">
	<g>
		
			<circle style="fill:#FFFFFF;stroke:#A8A8A8;stroke-linecap:round;stroke-linejoin:round;stroke-miterlimit:10;" cx="385.23" cy="100.507" r="39.394"/>
		
			<circle style="fill:#FFFFFF;stroke:#A8A8A8;stroke-linecap:round;stroke-linejoin:round;stroke-miterlimit:10;" cx="385.23" cy="100.507" r="35.816"/>
		<polyline style="fill:none;stroke:#A8A8A8;stroke-linecap:round;stroke-linejoin:round;stroke-miterlimit:10;" points="
			373.061,112.933 385.23,100.507 415.39,111.61 		"/>
		<path style="fill:#A8A8A8;stroke:#A8A8A8;stroke-linecap:round;stroke-linejoin:round;stroke-miterlimit:10;" d="M387.613,100.507
			c0,1.316-1.067,2.383-2.383,2.383c-1.316,0-2.383-1.067-2.383-2.383c0-1.316,1.067-2.383,2.383-2.383
			C386.546,98.124,387.613,99.191,387.613,100.507z"/>
	</g>
</g>
<g id="File_Caabinet">
	<g>
		<g>
			<g>
				<path style="fill:#A8A8A8;stroke:#A8A8A8;stroke-linecap:round;stroke-linejoin:round;stroke-miterlimit:10;" d="M44.282,91.979
					c1.437,0.628,4.951,0.549,4.954,0.549c0.036-0.001-0.756-2.301-0.822-2.44c-0.771-1.613-3.21-4.276-5.194-4.008
					c-1.43,0.193-2.224,1.624-1.902,2.969C41.648,90.423,43.059,91.444,44.282,91.979z"/>
				<path style="fill:#A8A8A8;stroke:#A8A8A8;stroke-linecap:round;stroke-linejoin:round;stroke-miterlimit:10;" d="M90.318,80.016
					c-1.991-0.214-4.356,2.514-5.084,4.147c-0.063,0.142-0.792,2.462-0.756,2.462c0,0,0.034-0.001,0.043-0.001
					c-0.377,0.428-0.776,0.891-1.201,1.405c-0.779,0.957-1.65,2.045-2.518,3.293c-0.871,1.245-1.782,2.622-2.611,4.159
					c-0.833,1.54-1.63,3.202-2.23,5.021c-0.007,0.02-0.011,0.043-0.018,0.063c0.011-0.586-0.015-2.227-0.032-2.353
					c-0.23-1.773-1.716-5.064-3.685-5.428c-1.418-0.262-2.62,0.849-2.733,2.229c-0.115,1.409,0.906,2.819,1.902,3.708
					c1.123,1.003,4.241,1.975,4.489,2.051c-0.556,1.737-0.985,3.565-1.317,5.439c-0.191,1.071-0.351,2.156-0.496,3.246
					c-0.007-0.507-0.017-0.961-0.026-1.024c-0.23-1.773-1.716-5.064-3.685-5.428c-1.418-0.262-2.62,0.849-2.733,2.229
					c-0.116,1.409,0.906,2.819,1.902,3.708c1.011,0.903,3.652,1.784,4.354,2.008c-0.051,0.418-0.107,0.836-0.158,1.255
					c-0.24,2.009-0.471,4.016-0.758,5.976c-0.101,0.691-0.225,1.368-0.347,2.046c-0.007-0.45-0.017-0.83-0.024-0.888
					c-0.23-1.773-1.716-5.064-3.685-5.428c-1.419-0.262-2.62,0.849-2.733,2.228c-0.116,1.408,0.906,2.819,1.902,3.708
					c0.964,0.861,3.395,1.697,4.228,1.967c-0.146,0.69-0.291,1.382-0.464,2.044c-0.128,0.45-0.22,0.891-0.374,1.336
					c-0.143,0.443-0.285,0.882-0.425,1.316c-0.301,0.827-0.606,1.681-0.92,2.481c-0.214,0.557-0.428,1.085-0.642,1.616
					c0.108-0.687,0.292-2.035,0.295-2.15c0.027-1.188-0.394-3.118-1.234-4.476c0.005-0.175-0.005-0.35-0.033-0.524
					c-0.22-1.367-1.503-2.381-2.897-2.01c-1.935,0.515-3.162,3.911-3.254,5.696c-0.006,0.105,0.063,1.255,0.119,1.979
					c-0.097-0.421-0.187-0.831-0.293-1.262c-0.203-0.856-0.431-1.704-0.672-2.617c-0.132-0.437-0.266-0.878-0.401-1.324
					c-0.124-0.445-0.312-0.899-0.467-1.354c-0.383-1.046-0.821-2.088-1.286-3.128c0.749-0.179,3.399-0.855,4.463-1.672
					c1.059-0.813,2.183-2.143,2.173-3.556c-0.01-1.384-1.125-2.581-2.559-2.426c-1.991,0.216-3.718,3.387-4.079,5.138
					c-0.023,0.109-0.14,1.395-0.191,2.102c-0.285-0.623-0.566-1.246-0.874-1.866c-0.889-1.792-1.845-3.578-2.792-5.364
					c-0.29-0.547-0.573-1.095-0.858-1.643c0.268-0.061,3.435-0.796,4.627-1.711c1.059-0.813,2.183-2.143,2.173-3.556
					c-0.01-1.384-1.125-2.582-2.559-2.426c-1.99,0.216-3.718,3.387-4.079,5.138c-0.027,0.132-0.194,1.982-0.214,2.454
					c-0.627-1.207-1.241-2.415-1.797-3.631c-0.77-1.677-1.433-3.364-1.954-5.047c0.125-0.028,3.434-0.781,4.655-1.717
					c1.059-0.813,2.183-2.143,2.173-3.556c-0.01-1.384-1.125-2.582-2.559-2.426c-1.991,0.216-3.718,3.387-4.079,5.138
					c-0.028,0.138-0.207,2.128-0.214,2.491c-0.031-0.1-0.074-0.201-0.103-0.301c-0.534-1.804-0.824-3.617-1.013-5.329
					c-0.112-0.994-0.163-1.951-0.192-2.883c0.631-0.077,3.509-0.46,4.701-1.182c1.142-0.692,2.405-1.89,2.551-3.296
					c0.142-1.377-0.835-2.69-2.277-2.692c-2.002-0.004-4.067,2.958-4.619,4.659c-0.03,0.093-0.231,1.067-0.367,1.778
					c-0.006-0.421-0.021-0.855-0.019-1.258c0.003-1.514,0.098-2.9,0.193-4.127c0.059-0.697,0.127-1.327,0.197-1.915
					c0.58-0.398,2.895-2.033,3.607-3.201c0.695-1.14,1.264-2.786,0.745-4.1c-0.509-1.287-1.98-2.003-3.262-1.34
					c-1.778,0.919-2.246,4.5-1.952,6.263c0.026,0.152,0.697,2.49,0.728,2.47c0,0,0.028-0.019,0.035-0.024
					c-0.078,0.565-0.155,1.171-0.227,1.835c-0.122,1.228-0.248,2.616-0.284,4.135c-0.039,1.519-0.04,3.17,0.117,4.909
					c0.155,1.743,0.407,3.57,0.909,5.418c0.006,0.021,0.014,0.042,0.02,0.063c-0.315-0.495-1.242-1.849-1.325-1.945
					c-1.17-1.352-4.225-3.277-6.068-2.494c-1.328,0.564-1.717,2.153-1.05,3.366c0.681,1.239,2.311,1.851,3.632,2.043
					c1.49,0.217,4.627-0.692,4.876-0.766c0.495,1.756,1.146,3.517,1.902,5.263c0.431,0.999,0.897,1.992,1.376,2.981
					c-0.286-0.419-0.545-0.791-0.587-0.84c-1.17-1.352-4.225-3.277-6.068-2.494c-1.328,0.564-1.716,2.153-1.05,3.366
					c0.681,1.238,2.311,1.851,3.632,2.044c1.341,0.195,4.03-0.526,4.739-0.727c0.188,0.378,0.371,0.757,0.561,1.133
					c0.908,1.809,1.822,3.609,2.665,5.403c0.297,0.632,0.566,1.265,0.839,1.898c-0.254-0.372-0.472-0.683-0.51-0.727
					c-1.17-1.352-4.225-3.277-6.068-2.494c-1.328,0.564-1.716,2.153-1.05,3.366c0.681,1.239,2.311,1.851,3.632,2.044
					c1.279,0.187,3.768-0.457,4.612-0.691c0.258,0.656,0.519,1.313,0.741,1.961c0.141,0.446,0.308,0.865,0.425,1.32
					c0.125,0.449,0.249,0.893,0.372,1.332c0.205,0.855,0.422,1.737,0.601,2.576c0.129,0.583,0.241,1.141,0.356,1.702
					c-0.289-0.632-0.88-1.859-0.94-1.956c-0.952-1.514-3.68-3.879-5.62-3.385c-1.398,0.356-2.023,1.869-1.547,3.168
					c0.485,1.327,2.003,2.18,3.28,2.57c1.406,0.43,4.519,0.037,4.907-0.015c0.187,0.93,0.359,1.837,0.509,2.695
					c0.524,2.973,0.847,5.469,1.049,7.217c0,0.003,0,0.005,0.001,0.008h-9.144v29.093h21.054v-29.093h-8.386
					c0.74-1.561,1.693-3.652,2.714-6.15c0.367-0.891,0.741-1.85,1.115-2.839c0.377,0.079,3.458,0.705,4.894,0.38
					c1.303-0.294,2.88-1.031,3.463-2.319c0.571-1.261,0.06-2.815-1.308-3.275c-1.897-0.637-4.795,1.518-5.856,2.957
					c-0.063,0.085-0.639,1.081-0.993,1.716c0.151-0.405,0.302-0.796,0.453-1.215c0.303-0.826,0.581-1.658,0.883-2.553
					c0.131-0.438,0.263-0.879,0.396-1.325c0.142-0.439,0.235-0.922,0.357-1.387c0.258-1.084,0.467-2.195,0.652-3.318
					c0.724,0.263,3.306,1.162,4.645,1.068c1.332-0.094,3.003-0.583,3.774-1.768c0.755-1.16,0.486-2.774-0.796-3.435
					c-1.78-0.918-4.97,0.774-6.237,2.035c-0.079,0.079-0.886,1.086-1.319,1.648c0.106-0.676,0.216-1.351,0.301-2.039
					c0.246-1.985,0.434-4.002,0.63-6.014c0.06-0.616,0.127-1.229,0.191-1.843c0.256,0.097,3.303,1.231,4.802,1.126
					c1.332-0.093,3.003-0.583,3.774-1.768c0.755-1.16,0.486-2.774-0.796-3.435c-1.779-0.918-4.969,0.774-6.236,2.035
					c-0.096,0.095-1.256,1.546-1.533,1.929c0.143-1.352,0.298-2.699,0.505-4.02c0.283-1.824,0.661-3.597,1.154-5.287
					c0.119,0.045,3.295,1.243,4.83,1.136c1.332-0.093,3.003-0.583,3.774-1.767c0.755-1.16,0.486-2.774-0.796-3.435
					c-1.779-0.918-4.97,0.774-6.237,2.035c-0.099,0.099-1.347,1.66-1.553,1.96c0.03-0.101,0.049-0.208,0.08-0.308
					c0.55-1.798,1.308-3.472,2.095-5.003c0.455-0.891,0.94-1.717,1.43-2.51c0.569,0.284,3.181,1.552,4.573,1.608
					c1.334,0.053,3.049-0.25,3.946-1.342c0.878-1.07,0.787-2.704-0.414-3.502c-1.668-1.108-5.024,0.224-6.422,1.338
					c-0.076,0.06-0.781,0.762-1.287,1.28c0.227-0.355,0.454-0.725,0.678-1.06c0.838-1.261,1.682-2.365,2.438-3.336
					c0.435-0.549,0.838-1.036,1.22-1.489c0.703-0.012,3.536-0.098,4.775-0.68c1.208-0.568,2.591-1.627,2.883-3.009
					C92.585,81.579,91.752,80.171,90.318,80.016z M68.277,133.499c-1.203,2.769-2.31,5.03-3.106,6.598
					c-0.003,0.005-0.004,0.008-0.007,0.013h-0.676c-0.008-0.06-0.015-0.114-0.024-0.176c-0.243-1.764-0.624-4.276-1.218-7.266
					c-0.186-0.945-0.403-1.952-0.635-2.983c0.234-0.093,1.561-0.63,2.738-1.287c1.025,1.11,3.65,2.408,3.991,2.574
					C68.982,131.85,68.626,132.702,68.277,133.499z"/>
				<path style="fill:#A8A8A8;stroke:#A8A8A8;stroke-linecap:round;stroke-linejoin:round;stroke-miterlimit:10;" d="M79.828,92.752
					c0.031,0.019,0.639-2.336,0.66-2.489c0.247-1.771-0.318-5.337-2.121-6.208c-1.299-0.628-2.751,0.127-3.224,1.427
					c-0.483,1.328,0.129,2.958,0.855,4.079C76.852,90.878,79.826,92.75,79.828,92.752z"/>
			</g>
			
				<rect x="47.368" y="169.717" style="fill:#FFFFFF;stroke:#A8A8A8;stroke-linecap:round;stroke-linejoin:round;stroke-miterlimit:10;" width="112.618" height="302.299"/>
			<g>
				
					<rect x="53.228" y="178.128" style="fill:#FFFFFF;stroke:#A8A8A8;stroke-linecap:round;stroke-linejoin:round;stroke-miterlimit:10;" width="99.887" height="60.511"/>
				
					<rect x="92.315" y="188.184" style="fill:#A8A8A8;stroke:#A8A8A8;stroke-linecap:round;stroke-linejoin:round;stroke-miterlimit:10;" width="18.24" height="7.119"/>
			</g>
			<g>
				
					<rect x="53.228" y="250.516" style="fill:#FFFFFF;stroke:#A8A8A8;stroke-linecap:round;stroke-linejoin:round;stroke-miterlimit:10;" width="99.887" height="60.511"/>
				
					<rect x="92.315" y="260.572" style="fill:#A8A8A8;stroke:#A8A8A8;stroke-linecap:round;stroke-linejoin:round;stroke-miterlimit:10;" width="18.24" height="7.119"/>
			</g>
			<g>
				
					<rect x="53.228" y="322.905" style="fill:#FFFFFF;stroke:#A8A8A8;stroke-linecap:round;stroke-linejoin:round;stroke-miterlimit:10;" width="99.887" height="60.511"/>
				
					<rect x="92.315" y="332.96" style="fill:#A8A8A8;stroke:#A8A8A8;stroke-linecap:round;stroke-linejoin:round;stroke-miterlimit:10;" width="18.24" height="7.119"/>
			</g>
			<g>
				
					<rect x="53.228" y="395.293" style="fill:#FFFFFF;stroke:#A8A8A8;stroke-linecap:round;stroke-linejoin:round;stroke-miterlimit:10;" width="99.887" height="60.511"/>
				
					<rect x="92.315" y="405.349" style="fill:#A8A8A8;stroke:#A8A8A8;stroke-linecap:round;stroke-linejoin:round;stroke-miterlimit:10;" width="18.24" height="7.119"/>
			</g>
		</g>
		<g>
			
				<rect x="94.588" y="113.979" style="fill:#FFFFFF;stroke:#A8A8A8;stroke-linecap:round;stroke-linejoin:round;stroke-miterlimit:10;" width="56.194" height="45.928"/>
			<polygon style="fill:#A8A8A8;stroke:#A8A8A8;stroke-linecap:round;stroke-linejoin:round;stroke-miterlimit:10;" points="
				152.943,169.616 152.943,142.06 124.846,111.801 92.427,111.801 92.427,169.616 			"/>
		</g>
	</g>
</g>
<g id="Desk">
	<g>
		<g>
			<g>
				
					<rect x="353.855" y="213.707" style="fill:#FFFFFF;stroke:#A8A8A8;stroke-linecap:round;stroke-linejoin:round;stroke-miterlimit:10;" width="29.151" height="78.177"/>
				
					<rect x="315.43" y="203.769" style="fill:#A8A8A8;stroke:#A8A8A8;stroke-linecap:round;stroke-linejoin:round;stroke-miterlimit:10;" width="106.002" height="75.527"/>
				
					<rect x="320.067" y="208.406" style="fill:#FFFFFF;stroke:#A8A8A8;stroke-linecap:round;stroke-linejoin:round;stroke-miterlimit:10;" width="96.727" height="66.251"/>
				<g>
					
						<ellipse transform="matrix(0.987 -0.1607 0.1607 0.987 -34.704 67.8718)" style="fill:#A8A8A8;" cx="402.18" cy="248.449" rx="10.907" ry="10.907"/>
					<g>
						<path style="fill:#FFFFFF;" d="M401.38,241.295v-1.117h1.932v1.117c1.675,0.343,2.533,1.631,2.533,3.671v0.473h-2.232v-0.623
							c0-1.074-0.43-1.481-1.181-1.481c-0.752,0-1.181,0.408-1.181,1.481c0,3.091,4.615,3.242,4.615,7.536
							c0,2.04-0.88,3.349-2.555,3.692v1.095h-1.932v-1.095c-1.696-0.343-2.556-1.653-2.556-3.692v-1.031h2.233v1.181
							c0,1.074,0.473,1.46,1.224,1.46c0.751,0,1.224-0.386,1.224-1.46c0-3.091-4.616-3.242-4.616-7.536
							C398.889,242.948,399.727,241.66,401.38,241.295z"/>
					</g>
				</g>
				<g>
					
						<polyline style="fill:none;stroke:#A8A8A8;stroke-width:3;stroke-linecap:round;stroke-linejoin:round;stroke-miterlimit:10;" points="
						335.083,251.755 348.304,237.542 358.881,243.822 368.797,231.923 383.34,237.872 402.841,222.007 					"/>
					<polygon style="fill:#A8A8A8;" points="408.253,217.618 395.573,219.617 403.645,229.599 					"/>
				</g>
			</g>
			
				<rect x="345.905" y="291.221" style="fill:#FFFFFF;stroke:#A8A8A8;stroke-linecap:round;stroke-linejoin:round;stroke-miterlimit:10;" width="45.713" height="3.975"/>
			
				<rect x="235.928" y="291.221" style="fill:#FFFFFF;stroke:#A8A8A8;stroke-linecap:round;stroke-linejoin:round;stroke-miterlimit:10;" width="87.452" height="3.975"/>
		</g>
		<g>
			
				<rect x="455.22" y="308.696" style="fill:#FFFFFF;stroke:#A8A8A8;stroke-linecap:round;stroke-linejoin:round;stroke-miterlimit:10;" width="7.95" height="163.641"/>
			
				<rect x="233.278" y="308.696" style="fill:#FFFFFF;stroke:#A8A8A8;stroke-linecap:round;stroke-linejoin:round;stroke-miterlimit:10;" width="225.87" height="25.176"/>
			
				<rect x="230.628" y="308.696" style="fill:#FFFFFF;stroke:#A8A8A8;stroke-linecap:round;stroke-linejoin:round;stroke-miterlimit:10;" width="7.95" height="163.641"/>
			
				<rect x="377.706" y="308.696" style="fill:#FFFFFF;stroke:#A8A8A8;stroke-linecap:round;stroke-linejoin:round;stroke-miterlimit:10;" width="85.464" height="139.128"/>
			
				<rect x="224.775" y="300.148" style="fill:#A8A8A8;stroke:#A8A8A8;stroke-linecap:round;stroke-linejoin:round;stroke-miterlimit:10;" width="243.695" height="11.197"/>
			
				<rect x="217.484" y="295.535" style="fill:#FFFFFF;stroke:#A8A8A8;stroke-linecap:round;stroke-linejoin:round;stroke-miterlimit:10;" width="258.277" height="7.174"/>
			<g>
				
					<rect x="382.344" y="317.971" style="fill:#FFFFFF;stroke:#A8A8A8;stroke-linecap:round;stroke-linejoin:round;stroke-miterlimit:10;" width="76.189" height="33.788"/>
				
					<rect x="412.157" y="332.546" style="fill:#A8A8A8;stroke:#A8A8A8;stroke-linecap:round;stroke-linejoin:round;stroke-miterlimit:10;" width="13.913" height="3.975"/>
			</g>
			<g>
				
					<rect x="382.344" y="363.022" style="fill:#FFFFFF;stroke:#A8A8A8;stroke-linecap:round;stroke-linejoin:round;stroke-miterlimit:10;" width="76.189" height="33.788"/>
				
					<rect x="412.157" y="377.597" style="fill:#A8A8A8;stroke:#A8A8A8;stroke-linecap:round;stroke-linejoin:round;stroke-miterlimit:10;" width="13.913" height="3.975"/>
			</g>
			<g>
				
					<rect x="382.344" y="408.073" style="fill:#FFFFFF;stroke:#A8A8A8;stroke-linecap:round;stroke-linejoin:round;stroke-miterlimit:10;" width="76.189" height="33.788"/>
				
					<rect x="412.157" y="422.648" style="fill:#A8A8A8;stroke:#A8A8A8;stroke-linecap:round;stroke-linejoin:round;stroke-miterlimit:10;" width="13.913" height="3.975"/>
			</g>
		</g>
		<g>
			<g>
				
					<rect x="309.16" y="365.761" style="fill:#A8A8A8;stroke:#A8A8A8;stroke-linecap:round;stroke-linejoin:round;stroke-miterlimit:10;" width="10.978" height="41.889"/>
				
					<rect x="306.372" y="401.066" style="fill:#A8A8A8;stroke:#A8A8A8;stroke-linecap:round;stroke-linejoin:round;stroke-miterlimit:10;" width="16.554" height="52.973"/>
				<polygon style="fill:#A8A8A8;stroke:#A8A8A8;stroke-linecap:round;stroke-linejoin:round;stroke-miterlimit:10;" points="
					322.577,452.646 314.91,450.582 314.91,450.206 314.213,450.394 313.516,450.206 313.516,450.582 305.849,452.646 
					253.573,462.404 253.573,466.238 313.516,466.238 314.91,466.238 374.854,466.238 374.854,462.404 				"/>
				<path style="fill:#A8A8A8;stroke:#A8A8A8;stroke-linecap:round;stroke-linejoin:round;stroke-miterlimit:10;" d="
					M261.763,468.677c0,2.021-1.638,3.659-3.659,3.659c-2.021,0-3.659-1.638-3.659-3.659c0-2.021,1.638-3.659,3.659-3.659
					C260.124,465.018,261.763,466.656,261.763,468.677z"/>
				<path style="fill:#A8A8A8;stroke:#A8A8A8;stroke-linecap:round;stroke-linejoin:round;stroke-miterlimit:10;" d="
					M317.873,468.677c0,2.021-1.638,3.659-3.659,3.659c-2.021,0-3.659-1.638-3.659-3.659c0-2.021,1.638-3.659,3.659-3.659
					C316.234,465.018,317.873,466.656,317.873,468.677z"/>
				<path style="fill:#A8A8A8;stroke:#A8A8A8;stroke-linecap:round;stroke-linejoin:round;stroke-miterlimit:10;" d="
					M374.331,468.677c0,2.021-1.638,3.659-3.66,3.659c-2.021,0-3.659-1.638-3.659-3.659c0-2.021,1.638-3.659,3.659-3.659
					C372.693,465.018,374.331,466.656,374.331,468.677z"/>
			</g>
			<g>
				<path style="fill:#FFFFFF;stroke:#A8A8A8;stroke-linecap:round;stroke-linejoin:round;stroke-miterlimit:10;" d="
					M272.546,372.668h-3.871c-3.86,0-6.989-3.129-6.989-6.989v-40.071h10.86V372.668z"/>
				
					<rect x="255.48" y="315.781" style="fill:#FFFFFF;stroke:#A8A8A8;stroke-linecap:round;stroke-linejoin:round;stroke-miterlimit:10;" width="17.066" height="8.792"/>
			</g>
			<g>
				<path style="fill:#FFFFFF;stroke:#A8A8A8;stroke-linecap:round;stroke-linejoin:round;stroke-miterlimit:10;" d="
					M357.131,372.668L357.131,372.668c5.998,0,10.86-4.862,10.86-10.86v-36.201h-10.86V372.668z"/>
				
					<rect x="357.131" y="315.781" transform="matrix(-1 -1.224647e-16 1.224647e-16 -1 731.3271 640.3537)" style="fill:#FFFFFF;stroke:#A8A8A8;stroke-linecap:round;stroke-linejoin:round;stroke-miterlimit:10;" width="17.066" height="8.792"/>
			</g>
			<path style="fill:#FFFFFF;stroke:#A8A8A8;stroke-linecap:round;stroke-linejoin:round;stroke-miterlimit:10;" d="
				M348.288,379.008h-67.279c-7.866,0-14.242-6.376-14.242-14.242l7.98-100.59c0-6.555,5.314-11.869,11.868-11.869h56.066
				c6.555,0,11.868,5.314,11.868,11.869l7.98,100.59C362.53,372.632,356.154,379.008,348.288,379.008z"/>
			<path style="fill:#FFFFFF;stroke:#A8A8A8;stroke-linecap:round;stroke-linejoin:round;stroke-miterlimit:10;" d="
				M348.288,384.302h-67.279c-7.866,0-14.242-6.376-14.242-14.242l7.98-100.59c0-6.555,5.314-11.868,11.868-11.868h56.066
				c6.555,0,11.868,5.314,11.868,11.868l7.98,100.59C362.53,377.925,356.154,384.302,348.288,384.302z"/>
		</g>
	</g>
</g>
<g id="Character">
	<g>
		<path style="fill:#263238;stroke:#263238;stroke-linecap:round;stroke-linejoin:round;stroke-miterlimit:10;" d="M187.825,272.479
			l-5.489,15.2c0,0-30.208,44.141-38.652,57.653s-7.458,11.828-7.035,16.473c0.422,4.645,20.069,69.118,20.491,75.874
			c0.422,6.756,0,10.978,0,10.978l8.022-1.267c0,0-1.689,4.645-4.645,8.445c-2.956,3.8-3.378,5.489-8.445,9.289
			c-5.067,3.8-8.867,3.8-5.911,5.489c2.956,1.689,15.623,1.689,19.423-0.845s6.333-7.178,8.445-9.289
			c2.111-2.111,3.378-3.378,3.378-3.378l1.267,3.8c0,0,4.222-4.645,5.911-5.489c1.689-0.845,2.956-3.378,2.956-3.378
			s-1.267-3.378-2.533-5.911c-1.267-2.533-6.333-6.333-6.333-6.333s-3.657-35.011-7.034-51.478
			c-3.378-16.467-1.212-16.795-2.057-19.329c-0.844-2.533-2.111-5.067-2.111-5.067l35.507-45.771
			c0.308-0.32,0.693-0.555,1.118-0.682l0,0c1.727-0.518,3.439,0.844,3.317,2.643c-0.905,13.32-2.382,52.124-0.587,57.509
			c2.111,6.333,17.403,29.806,18.578,32.09c3.024,5.875,17.171,24.208,19.704,29.697c2.533,5.489,5.067,11.4,5.067,11.4l7.6-4.645
			c0,0,2.111,2.956,0,5.489c-2.111,2.533-8.445,12.245-13.089,15.2c-4.645,2.956-2.956,5.489-2.956,5.489s16.889-0.422,19.845-0.844
			c2.956-0.422,5.067-3.8,7.178-6.756s5.067-8.867,5.067-8.867l3.378,2.956c0,0,2.111-4.222,3.378-7.6
			c1.267-3.378,1.267-6.756,1.267-6.756s-5.067-4.645-8.445-5.911c-3.378-1.267-6.334-2.533-6.334-2.533l-4.222-6.334
			c0,0-11.4-39.69-16.467-49.401c-5.067-9.711-10.556-14.778-10.556-14.778s13.652-49.964,16.186-60.942
			c2.533-10.978,3.378-19.845,3.378-19.845s-13.934-10.978-35.468-14.778S187.825,272.479,187.825,272.479z"/>
		<g>
			<path style="fill:none;stroke:#7A7A7A;stroke-linecap:round;stroke-linejoin:round;stroke-miterlimit:10;" d="M209.863,277.797
				v4.785c0,0-7.443,7.443-6.646,9.835s2.658,13.025,2.658,13.025"/>
			<path style="fill:none;stroke:#7A7A7A;stroke-linecap:round;stroke-linejoin:round;stroke-miterlimit:10;" d="M215.179,278.063
				l0.532,5.316c0,0-6.911,8.772-7.177,10.101c-0.266,1.329,0.266,4.253,0.266,4.253"/>
			<path style="fill:none;stroke:#7A7A7A;stroke-linecap:round;stroke-linejoin:round;stroke-miterlimit:10;" d="M222.622,282.05
				c0,0,10.101,2.658,18.342,7.177"/>
			<path style="fill:none;stroke:#7A7A7A;stroke-linecap:round;stroke-linejoin:round;stroke-miterlimit:10;" d="M241.265,292.858
				c-4.773-1.824-10.968-4.085-13.858-4.693"/>
			<path style="fill:none;stroke:#7A7A7A;stroke-linecap:round;stroke-linejoin:round;stroke-miterlimit:10;" d="M247.61,295.341
				c0,0-1.176-0.474-2.982-1.182"/>
			<path style="fill:none;stroke:#7A7A7A;stroke-linecap:round;stroke-linejoin:round;stroke-miterlimit:10;" d="M222.132,306.934
				c5.109-1.806,11.813-3.63,17.503-3.352"/>
			<path style="fill:none;stroke:#7A7A7A;stroke-linecap:round;stroke-linejoin:round;stroke-miterlimit:10;" d="M214.116,310.228
				c0,0,1.531-0.752,3.972-1.751"/>
			
				<line style="fill:none;stroke:#7A7A7A;stroke-linecap:round;stroke-linejoin:round;stroke-miterlimit:10;" x1="195.092" y1="293.908" x2="196.838" y2="295.607"/>
			
				<line style="fill:none;stroke:#7A7A7A;stroke-linecap:round;stroke-linejoin:round;stroke-miterlimit:10;" x1="186.736" y1="285.772" x2="192.532" y2="291.415"/>
			
				<line style="fill:none;stroke:#7A7A7A;stroke-linecap:round;stroke-linejoin:round;stroke-miterlimit:10;" x1="187.8" y1="280.455" x2="197.369" y2="281.519"/>
		</g>
		<g>
			<path style="fill:#FFFFFF;stroke:#263238;stroke-linecap:round;stroke-linejoin:round;stroke-miterlimit:10;" d="M242.621,178.27
				c0,0-16.763,1.989-21.593,3.125c-4.83,1.136-8.24,1.136-9.376,2.557c-1.136,1.421-11.365,10.512-16.195,13.07
				c-4.83,2.557-19.32,6.535-19.604,7.387c-0.284,0.852,1.989,15.059,1.421,19.604c-0.568,4.546-1.137,7.387-1.137,7.387
				l26.992-10.513c0,0-6.819,26.139-9.376,32.674s-3.125,10.797-5.114,12.217c-1.989,1.421-3.694,1.136-3.694,3.694
				s1.705,5.967,2.557,6.251c0.852,0.284,18.468-1.989,25.287-0.852s32.674,12.217,38.072,15.911
				c5.398,3.694,5.682,1.989,7.671-1.989c1.989-3.978,1.989-12.217,1.989-13.07c0-0.852,21.309-47.732,21.309-47.732
				s3.125,23.582,6.251,25.287c3.125,1.705,10.513,1.421,13.922-5.398c3.409-6.819,10.513-17.047,7.103-25.003
				c-3.409-7.955-7.955-17.9-10.512-23.582c-2.557-5.682-4.83-6.251-11.365-8.808c-6.535-2.557-23.866-10.797-25.571-11.081
				C259.952,179.122,242.621,178.27,242.621,178.27z"/>
			<g>
				<path style="fill:none;stroke:#263238;stroke-linecap:round;stroke-linejoin:round;stroke-miterlimit:10;" d="M230.868,256.189
					c5.801,7.771,14.757,20.466,16.947,27.522"/>
				<path style="fill:none;stroke:#263238;stroke-linecap:round;stroke-linejoin:round;stroke-miterlimit:10;" d="M225.77,249.541
					c0,0,0.793,0.995,2.081,2.667"/>
				<path style="fill:none;stroke:#263238;stroke-linecap:round;stroke-linejoin:round;stroke-miterlimit:10;" d="M253.717,281.86
					c0.249,0.501,0.488,0.998,0.712,1.483"/>
				<path style="fill:none;stroke:#263238;stroke-linecap:round;stroke-linejoin:round;stroke-miterlimit:10;" d="M248.55,272.688
					c0,0,1.76,2.816,3.575,6.134"/>
				<path style="fill:none;stroke:#263238;stroke-linecap:round;stroke-linejoin:round;stroke-miterlimit:10;" d="M199.317,273.055
					c0,0,18.371-1.102,22.412-0.367"/>
				<path style="fill:none;stroke:#263238;stroke-linecap:round;stroke-linejoin:round;stroke-miterlimit:10;" d="M218.055,274.525
					c0,0,11.023,1.102,15.431,2.939"/>
			</g>
			<polygon style="fill:#263238;stroke:#263238;stroke-linecap:round;stroke-linejoin:round;stroke-miterlimit:10;" points="
				281.83,227.991 278.816,218.091 278.271,226.81 266.282,226.265 278.816,233.622 			"/>
			
				<line style="fill:none;stroke:#263238;stroke-linecap:round;stroke-linejoin:round;stroke-miterlimit:10;" x1="203.128" y1="221.74" x2="211.651" y2="191.339"/>
			<polygon style="fill:#263238;stroke:#263238;stroke-linecap:round;stroke-linejoin:round;stroke-miterlimit:10;" points="
				207.39,205.829 204.159,197.656 203.614,216.456 199.527,217.001 203.128,220.888 			"/>
		</g>
		<path style="fill:#FFFFFF;stroke:#263238;stroke-linecap:round;stroke-linejoin:round;stroke-miterlimit:10;" d="M178.693,202.136
			c0,0,6.819,6.535,7.955,11.649c1.137,5.114-2.841,13.07-4.83,16.195c-1.989,3.125-4.262,3.978-9.944,4.546
			c-5.682,0.568-11.933-4.262-12.217-9.092C159.373,220.604,166.476,200.999,178.693,202.136z"/>
		<g>
			<path style="fill:#263238;stroke:#263238;stroke-linecap:round;stroke-linejoin:round;stroke-miterlimit:10;" d="
				M229.267,211.512c0,0-14.49,17.615-25.855,24.15c-11.365,6.535-18.468,11.081-18.468,11.081l-3.978,19.036
				c0,0,15.911-2.273,20.741-3.978c4.83-1.705,5.967-2.557,5.967-2.557s9.944-21.025,16.763-32.674
				c6.819-11.649,7.671-13.354,7.671-13.354L229.267,211.512z"/>
			<path style="fill:#263238;stroke:#263238;stroke-linecap:round;stroke-linejoin:round;stroke-miterlimit:10;" d="
				M231.256,190.771c0,0.852-1.989,20.741-1.989,20.741l2.841,1.705l18.752-13.922c0,0,0.852-3.409-0.284-3.409
				c-1.136,0-10.228,6.535-10.228,6.535l-7.955-3.125l0.852-8.24L231.256,190.771z"/>
			<path style="fill:#92E3A9;stroke:#263238;stroke-linecap:round;stroke-linejoin:round;stroke-miterlimit:10;" d="
				M241.192,201.818c-0.526,0.372-0.844,0.602-0.844,0.602l-1.068-0.419l-9.157,0.872c-0.222,2.263-0.435,4.406-0.593,5.995
				l9.677-0.922l9.176-6.812L241.192,201.818z"/>
			<g>
				<path style="fill:#92E3A9;stroke:#263238;stroke-linecap:round;stroke-linejoin:round;stroke-miterlimit:10;" d="
					M223.323,228.508l-11.644,1.109c-2.777,2.376-5.607,4.516-8.268,6.045c-0.482,0.277-0.945,0.545-1.411,0.815l17.899-1.705
					C221.068,232.573,222.224,230.449,223.323,228.508z"/>
				<path style="fill:#92E3A9;stroke:#263238;stroke-linecap:round;stroke-linejoin:round;stroke-miterlimit:10;" d="
					M183.58,253.271l28.287-2.694c0.939-1.911,1.988-4.026,3.099-6.233l-30.12,2.868L183.58,253.271z"/>
				<path style="fill:#92E3A9;stroke:#263238;stroke-linecap:round;stroke-linejoin:round;stroke-miterlimit:10;" d="
					M225.909,215.404c-1.61,1.811-3.701,4.094-6.071,6.516l7.74-0.737c1.835-3.163,2.944-5.108,3.604-6.281L225.909,215.404z"/>
			</g>
		</g>
		<path style="fill:#FFFFFF;stroke:#263238;stroke-linecap:round;stroke-linejoin:round;stroke-miterlimit:10;" d="M244.61,173.155
			c0,0-8.524,4.262-9.66,6.251c-1.136,1.989-3.125,8.808-7.387,14.206c-4.262,5.398-9.092,9.092-4.83,7.387
			c4.262-1.705,10.228-7.955,10.228-7.955l2.557,7.955c0,0,1.421,0.568,3.978-0.568c2.557-1.137,8.24-5.114,8.24-2.841
			c0,2.273-1.705,13.354,0,11.649c1.705-1.705,2.557-7.387,9.376-12.786c6.819-5.398,12.785-8.524,13.07-14.774
			c0.284-6.251-1.705-7.671-7.387-9.092C257.111,171.167,245.178,172.019,244.61,173.155z"/>
		<g>
			<path style="fill:#A8A8A8;stroke:#263238;stroke-linecap:round;stroke-linejoin:round;stroke-miterlimit:10;" d="
				M241.768,167.757c0,0,0.852,4.546-1.705,11.933c-2.557,7.387-8.524,23.582-3.41,21.877s25.003-17.9,26.708-20.173
				c1.705-2.273,5.966-19.32,5.966-19.32s-16.763,4.546-21.593,5.114C242.905,167.757,241.768,167.757,241.768,167.757z"/>
			<path style="fill:#263238;stroke:#263238;stroke-linecap:round;stroke-linejoin:round;stroke-miterlimit:10;" d="
				M241.768,167.757c0,0,0.556,2.975-0.583,8.02c24.228-4.652,28.143-13.702,28.143-13.702s-16.763,4.546-21.593,5.114
				C242.905,167.757,241.768,167.757,241.768,167.757z"/>
		</g>
		<g>
			<path style="fill:#263238;stroke:#263238;stroke-linecap:round;stroke-linejoin:round;stroke-miterlimit:10;" d="
				M277.852,155.256c0,0-2.557-3.125,8.24-6.535c10.797-3.41,17.047-6.819,15.627-13.354c-1.421-6.535-9.092-8.24-9.092-8.24
				s6.535-12.217,2.273-14.774s-9.376,1.136-9.376,1.136s1.137-9.092-3.41-9.376c-4.546-0.284-9.092,3.694-9.092,3.694
				s-0.284-9.376-8.24-7.671c-7.955,1.705-5.114,9.944-5.114,9.944s-9.092-3.694-12.217,1.989c-3.125,5.683-0.568,7.955-0.568,7.955
				s-3.125,1.136-3.125,4.262c0,3.125,2.841,6.251,5.114,6.535c2.273,0.284,5.682-1.421,8.524-0.852
				c2.841,0.568,13.638,6.819,10.513,16.763c-3.125,9.944,0.568,11.649,1.989,12.501
				C271.317,160.086,276.715,157.529,277.852,155.256z"/>
			<g>
				<path style="fill:#A8A8A8;stroke:#263238;stroke-linecap:round;stroke-linejoin:round;stroke-miterlimit:10;" d="
					M275.011,139.061c0,0,3.978-4.83,3.978-7.955c0-3.125-10.797-10.797-17.331-10.797c-6.535,0-15.911,7.955-15.911,9.944
					c0,1.989,0,3.125-1.421,4.546c-1.421,1.421-6.819,4.262-8.24,7.387c-1.421,3.125-6.251,23.582-5.114,24.718
					c1.136,1.137,7.581,2.359,9.376,2.273c5.967-0.284,17.9,0,21.877-1.421c3.978-1.421,6.819-3.978,6.819-3.978
					s4.546,0.284,7.955-1.421c3.41-1.705,7.387-7.103,3.694-9.376c-3.694-2.273-9.092-1.137-9.092-1.137s-0.852-1.137,0.568-3.125
					c1.421-1.989,1.421-1.705,1.421-3.125C273.59,144.175,272.738,141.334,275.011,139.061z"/>
				<path style="fill:none;stroke:#263238;stroke-linecap:round;stroke-linejoin:round;stroke-miterlimit:10;" d="M253.986,131.674
					c0,0-0.852,2.273-3.694,3.978c-2.841,1.705-8.524,2.841-7.103,5.114c1.421,2.273,4.83,2.557,7.103,2.557
					c2.273,0,2.557-2.273,2.557-2.273"/>
				<path style="fill:#263238;stroke:#263238;stroke-linecap:round;stroke-linejoin:round;stroke-miterlimit:10;" d="
					M242.337,147.016c0,0,3.694,0.852,9.66,1.136c5.967,0.284,10.513-1.705,10.513-1.705s-5.398,7.387-8.524,9.66
					c-3.125,2.273-7.103,3.694-11.365,2.841c-4.262-0.852-5.398-3.125-4.262-4.83C239.495,152.415,242.337,147.016,242.337,147.016z
					"/>
				<g>
					<path style="fill:#FFFFFF;stroke:#263238;stroke-linecap:round;stroke-linejoin:round;stroke-miterlimit:10;" d="
						M259.418,150.428c1.741-2.132,3.092-3.98,3.092-3.98s-4.546,1.989-10.513,1.705c-5.967-0.284-9.66-1.136-9.66-1.136
						s-0.508,0.964-1.178,2.203C243.195,150.008,250.928,152.608,259.418,150.428z"/>
					<path style="fill:#FFFFFF;stroke:#263238;stroke-linecap:round;stroke-linejoin:round;stroke-miterlimit:10;" d="
						M238.128,154.559c-0.688,1.637,0.587,3.609,4.493,4.391c3.617,0.723,7.027-0.193,9.888-1.876
						c0.881-0.568,1.477-0.965,1.477-0.965S246.816,158.74,238.128,154.559z"/>
				</g>
				<path style="fill:none;stroke:#263238;stroke-linecap:round;stroke-linejoin:round;stroke-miterlimit:10;" d="M259.668,137.356
					c0,0,3.978-1.421,6.251,1.989"/>
				<path style="fill:none;stroke:#263238;stroke-linecap:round;stroke-linejoin:round;stroke-miterlimit:10;" d="M250.292,134.515
					c0,0-1.137-1.705-3.694,0"/>
				<path style="fill:none;stroke:#263238;stroke-width:2;stroke-linecap:round;stroke-linejoin:round;stroke-miterlimit:10;" d="
					M264.498,129.117c0,0,3.694,1.705,3.978,7.387"/>
				<path style="fill:none;stroke:#263238;stroke-width:2;stroke-linecap:round;stroke-linejoin:round;stroke-miterlimit:10;" d="
					M253.417,127.98c0,0-3.125-0.852-6.251,1.989"/>
			</g>
		</g>
		<path style="fill:#FFFFFF;stroke:#263238;stroke-linecap:round;stroke-linejoin:round;stroke-miterlimit:10;" d="M294.615,227.707
			c0,0-10.228,7.103-11.365,9.66c-1.137,2.557,0.568,15.627,1.705,19.605c1.137,3.978,5.114,4.262,10.513,4.546
			c5.398,0.284,11.365,0.284,14.49-5.114c3.125-5.398,2.273-11.365-2.841-17.616C302.002,232.537,294.615,227.707,294.615,227.707z"
			/>
		<g>
			<path style="fill:#A8A8A8;stroke:#263238;stroke-linecap:round;stroke-linejoin:round;stroke-miterlimit:10;" d="
				M302.286,161.222c0,0-3.41-3.125-4.83-2.557c-1.421,0.568-8.808,2.557-7.671,5.682c1.136,3.125,6.819,1.705,8.808,1.136
				C300.582,164.916,302.002,163.495,302.286,161.222z"/>
			<path style="fill:#A8A8A8;stroke:#263238;stroke-linecap:round;stroke-linejoin:round;stroke-miterlimit:10;" d="
				M310.526,161.222c0,0-3.978-5.398-6.819-4.262c-2.841,1.137-3.694,5.398-3.694,5.398s-4.262,0.852-5.114,2.557
				c-0.852,1.705-0.852,1.705-0.852,1.705s-3.693,0.284-4.262,1.989c-0.568,1.705-0.568,3.409-0.568,3.409s-1.989,0.568-2.557,2.841
				c-0.568,2.273,0,3.125,1.137,5.967c1.136,2.841,4.83,6.819,5.966,8.239c1.137,1.421,5.398,2.557,5.682,3.41
				c0.284,0.852,0.284,2.841-0.852,9.092c-1.137,6.251-4.262,22.446-6.819,31.253s-5.398,11.649-2.273,19.32
				c3.125,7.671,6.535,8.808,10.797,7.671c4.262-1.137,11.365-5.114,13.638-13.638c2.273-8.524-0.284-23.014-0.284-32.674
				c0-9.66,0.284-25.855,0-32.958C313.367,173.439,310.526,161.222,310.526,161.222z"/>
		</g>
		<g>
			<path style="fill:#A8A8A8;stroke:#263238;stroke-linecap:round;stroke-linejoin:round;stroke-miterlimit:10;" d="
				M214.493,164.348c0,0-7.671,1.705-11.081,2.273c-3.41,0.568-5.967-1.137-6.535-2.841c-0.568-1.705-4.546-3.694-4.546-3.694
				s1.421-1.705,9.66-3.978c8.24-2.273,13.354,1.989,13.354,1.989L214.493,164.348z"/>
			<path style="fill:#A8A8A8;stroke:#263238;stroke-linecap:round;stroke-linejoin:round;stroke-miterlimit:10;" d="
				M187.562,167.701c0,0,3.852-1.156,6.693-2.008c2.841-0.852,4.611-4.755,4.611-4.755s0.284,1.989,1.989,1.705
				c1.705-0.284,9.376-0.852,11.081-0.852c1.705,0,8.524-1.989,8.524-4.546s-6.251-9.376-7.387-11.365
				c-1.137-1.989-4.546-2.841-6.819-2.841c-2.273,0-4.546,1.421-11.365,5.682c-6.819,4.262-11.365,6.535-12.785,8.524
				c-1.421,1.989-22.73,38.925-24.15,43.187c-1.42,4.26-5.112,12.78-4.263,16.192c1.046,4.204,5.1,8.395,8.096,11.312
				c4.199,4.086,13.185,2.347,15.85-2.885c2.273-4.464,3.046-10.868,3.046-15.81c0-6.535-1.421-11.081,0-20.173
				C182.103,179.974,187.562,167.701,187.562,167.701z"/>
			<path style="fill:#A8A8A8;stroke:#263238;stroke-linecap:round;stroke-linejoin:round;stroke-miterlimit:10;" d="
				M210.231,162.643c0,0,0,2.557,0.852,2.841c0.852,0.284,6.535,0.568,6.819-1.136c0.284-1.705,0-2.557-1.421-3.125
				C215.061,160.654,210.799,160.938,210.231,162.643z"/>
			<polyline style="fill:none;stroke:#263238;stroke-linecap:round;stroke-linejoin:round;stroke-miterlimit:10;" points="
				198.866,160.938 201.423,158.949 199.434,156.96 			"/>
			<path style="fill:none;stroke:#263238;stroke-linecap:round;stroke-linejoin:round;stroke-miterlimit:10;" d="M204.833,146.732
				c0,0,4.262,8.524,5.114,10.228c0.852,1.705,0.284,1.421-0.852,2.273c-1.136,0.852-5.398,3.125-5.398,3.125"/>
			<path style="fill:none;stroke:#263238;stroke-linecap:round;stroke-linejoin:round;stroke-miterlimit:10;" d="M209.947,146.164
				c0,0,5.967,10.797,5.398,11.933c-0.568,1.137-5.114,4.546-5.114,4.546"/>
			<path style="fill:none;stroke:#263238;stroke-linecap:round;stroke-linejoin:round;stroke-miterlimit:10;" d="M214.777,148.721
				c0,0,4.262,7.103,3.693,9.092c-0.568,1.989-2.929,3.364-2.929,3.364"/>
		</g>
	</g>
</g>
<g id="Floor">
	
		<line style="fill:none;stroke:#263238;stroke-linecap:round;stroke-linejoin:round;stroke-miterlimit:10;" x1="488" y1="472.336" x2="20.063" y2="472.336"/>
</g>
</svg>
